<svg width="109" height="107" viewBox="0 0 109 107" fill="none" xmlns="http://www.w3.org/2000/svg">
<path d="M106 59.5C106 84.5708 85.0164 105 59 105C32.9835 105 12 84.5708 12 59.5C12 34.4292 32.9835 14 59 14C85.0164 14 106 34.4292 106 59.5Z" stroke="#E41085" stroke-width="4"/>
<path d="M98 49.5C98 74.5708 77.0164 95 51 95C24.9835 95 4 74.5708 4 49.5C4 24.4292 24.9835 4 51 4C77.0164 4 98 24.4292 98 49.5Z" stroke="#91207C" stroke-width="4"/>
<path d="M96 59.5C96 84.5708 75.0164 105 49 105C22.9835 105 2 84.5708 2 59.5C2 34.4292 22.9835 14 49 14C75.0164 14 96 34.4292 96 59.5Z" stroke="#EDA737" stroke-width="4"/>
<path d="M107 47.5C107 72.5708 86.0164 93 60 93C33.9835 93 13 72.5708 13 47.5C13 22.4292 33.9835 2 60 2C86.0164 2 107 22.4292 107 47.5Z" stroke="#E85D0C" stroke-width="4"/>
</svg>
