<svg xmlns="http://www.w3.org/2000/svg" width="39" height="40" fill="none" viewBox="0 0 39 40">
  <circle cx="19.478" cy="20" r="19.1" stroke="#000" stroke-width=".2"/>
  <path fill="#FFA51D" d="M19.479 19.296a5.202 5.202 0 0 0 3.696-1.546 5.304 5.304 0 0 0 1.531-3.732c0-1.4-.55-2.742-1.531-3.731a5.202 5.202 0 0 0-3.697-1.546 5.202 5.202 0 0 0-3.696 1.546 5.303 5.303 0 0 0-1.531 3.731 5.3 5.3 0 0 0 1.531 3.732c.98.99 2.31 1.546 3.697 1.546Zm-1.867 1.98c-4.023 0-7.282 3.29-7.282 7.351 0 .677.543 1.225 1.213 1.225h15.87a1.22 1.22 0 0 0 1.214-1.225c0-4.061-3.26-7.351-7.282-7.351h-3.733Z"/>
</svg>
