<svg width="8" height="12" viewBox="0 0 8 12" fill="none" xmlns="http://www.w3.org/2000/svg">
<path d="M7.6375 3.48751L5.0125 0.862511C4.9795 0.825866 4.93894 0.796827 4.89362 0.777403C4.84829 0.757979 4.79929 0.748632 4.75 0.750011H1C0.801267 0.750595 0.610841 0.8298 0.470315 0.970326C0.329789 1.11085 0.250584 1.30128 0.25 1.50001V10.5C0.250584 10.6987 0.329789 10.8892 0.470315 11.0297C0.610841 11.1702 0.801267 11.2494 1 11.25H7C7.19873 11.2494 7.38916 11.1702 7.52969 11.0297C7.67021 10.8892 7.74942 10.6987 7.75 10.5V3.75001C7.75138 3.70072 7.74203 3.65172 7.72261 3.60639C7.70318 3.56107 7.67414 3.52051 7.6375 3.48751ZM4.75 1.65001L6.85 3.75001H4.75V1.65001ZM7 10.5H1V1.50001H4V3.75001C4.00058 3.94874 4.07979 4.13917 4.22031 4.2797C4.36084 4.42022 4.55127 4.49943 4.75 4.50001H7V10.5Z" fill="white"/>
</svg>
