<svg width="18" height="18" viewBox="0 0 18 18" fill="none" xmlns="http://www.w3.org/2000/svg">
<g clip-path="url(#clip0_94_56)">
<path d="M16.6146 7.73999L14.76 5.88542C14.5927 5.71865 14.3662 5.625 14.13 5.625C13.8938 5.625 13.6673 5.71865 13.5 5.88542L5.625 13.7629V16.875H8.73709L16.6146 8.99999C16.7813 8.83273 16.875 8.60618 16.875 8.36999C16.875 8.1338 16.7813 7.90724 16.6146 7.73999ZM8.27111 15.75H6.75V14.2289L12.0605 8.91837L13.5816 10.4395L8.27111 15.75ZM14.377 9.64405L12.8559 8.12299L14.1312 6.84769L15.6524 8.36881L14.377 9.64405Z" fill="black"/>
<path d="M6.1875 9.5625H7.3125V5.625H9V4.5H4.5V5.625H6.1875V9.5625Z" fill="black"/>
<path d="M4.5 11.25H2.25V2.25H11.25V4.5H12.375V2.25C12.375 1.95163 12.2565 1.66548 12.0455 1.4545C11.8345 1.24353 11.5484 1.125 11.25 1.125H2.25C1.95163 1.125 1.66548 1.24353 1.4545 1.4545C1.24353 1.66548 1.125 1.95163 1.125 2.25V11.25C1.125 11.5484 1.24353 11.8345 1.4545 12.0455C1.66548 12.2565 1.95163 12.375 2.25 12.375H4.5V11.25Z" fill="black"/>
</g>
<defs>
<clipPath id="clip0_94_56">
<rect width="18" height="18" fill="white"/>
</clipPath>
</defs>
</svg>
