<svg width="20" height="20" viewBox="0 0 12 12" fill="none" xmlns="http://www.w3.org/2000/svg">
<g clip-path="url(#clip0_94_97)">
<path d="M5.25 8.03025L3.375 6.15488L3.90488 5.625L5.25 6.96975L8.09437 4.125L8.625 4.65562L5.25 8.03025Z" fill="white"/>
<path d="M6 0.75C4.96165 0.75 3.94662 1.05791 3.08326 1.63478C2.2199 2.21166 1.54699 3.0316 1.14963 3.99091C0.752275 4.95022 0.648307 6.00582 0.85088 7.02422C1.05345 8.04262 1.55347 8.97809 2.28769 9.71231C3.02192 10.4465 3.95738 10.9466 4.97578 11.1491C5.99418 11.3517 7.04978 11.2477 8.00909 10.8504C8.9684 10.453 9.78834 9.7801 10.3652 8.91674C10.9421 8.05339 11.25 7.03835 11.25 6C11.25 4.60761 10.6969 3.27226 9.71231 2.28769C8.72775 1.30312 7.39239 0.75 6 0.75ZM6 10.5C5.10999 10.5 4.23996 10.2361 3.49994 9.74161C2.75992 9.24715 2.18314 8.54434 1.84254 7.72208C1.50195 6.89981 1.41284 5.99501 1.58647 5.12209C1.7601 4.24918 2.18869 3.44736 2.81802 2.81802C3.44736 2.18868 4.24918 1.7601 5.1221 1.58647C5.99501 1.41283 6.89981 1.50195 7.72208 1.84254C8.54435 2.18314 9.24715 2.75991 9.74162 3.49993C10.2361 4.23996 10.5 5.10998 10.5 6C10.5 7.19347 10.0259 8.33807 9.18198 9.18198C8.33807 10.0259 7.19348 10.5 6 10.5Z" fill="white"/>
</g>
<defs>
<clipPath id="clip0_94_97">
<rect width="12" height="12" fill="white"/>
</clipPath>
</defs>
</svg>
