<svg width="20" height="22" viewBox="0 0 20 22" fill="none" xmlns="http://www.w3.org/2000/svg">
<path d="M10.0002 11.2963C11.3866 11.2963 12.7163 10.7402 13.6966 9.75045C14.677 8.76068 15.2277 7.41825 15.2277 6.0185C15.2277 4.61875 14.677 3.27632 13.6966 2.28655C12.7163 1.29677 11.3866 0.740723 10.0002 0.740723C8.61378 0.740723 7.28414 1.29677 6.30379 2.28655C5.32344 3.27632 4.77269 4.61875 4.77269 6.0185C4.77269 7.41825 5.32344 8.76068 6.30379 9.75045C7.28414 10.7402 8.61378 11.2963 10.0002 11.2963ZM8.13381 13.2754C4.11108 13.2754 0.852051 16.5658 0.852051 20.6272C0.852051 21.3034 1.39522 21.8518 2.065 21.8518H17.9354C18.6052 21.8518 19.1483 21.3034 19.1483 20.6272C19.1483 16.5658 15.8893 13.2754 11.8666 13.2754H8.13381Z" fill="#FFA51D"/>
</svg>
